<svg xmlns="http://www.w3.org/2000/svg" viewBox="347 349 754 114" preserveAspectRatio="xMidYMid meet">
  <defs>
    <g/>
  </defs>
  <g fill="#5271ff" fill-opacity="1">
    <g transform="translate(324.676953, 460.765959)">
      <g>
        <path d="M 87.25 0 L 21.890625 0 L 21.890625 -16.5 L 46 -16.5 L 46 -94.546875 L 21.890625 -94.546875 L 21.890625 -111.03125 L 87.25 -111.03125 L 87.25 -94.546875 L 63.125 -94.546875 L 63.125 -16.5 L 87.25 -16.5 Z M 87.25 0 "/>
      </g>
    </g>
  </g>
  <g fill="#5271ff" fill-opacity="1">
    <g transform="translate(453.323845, 460.765959)">
      <g>
        <path d="M 39.8125 -111.03125 L 82.484375 -51.875 L 125.3125 -111.03125 L 141.8125 -111.03125 L 141.8125 0 L 124.671875 0 L 124.671875 -46.484375 C 124.671875 -53.242188 124.773438 -59.664062 124.984375 -65.75 C 125.203125 -71.832031 125.679688 -77.941406 126.421875 -84.078125 L 87.40625 -31.890625 L 76.9375 -31.890625 L 38.390625 -83.90625 C 39.128906 -77.882812 39.601562 -71.832031 39.8125 -65.75 C 40.019531 -59.664062 40.125 -53.242188 40.125 -46.484375 L 40.125 0 L 23 0 L 23 -111.03125 Z M 39.8125 -111.03125 "/>
      </g>
    </g>
  </g>
  <g fill="#5271ff" fill-opacity="1">
    <g transform="translate(637.489702, 460.765959)">
      <g>
        <path d="M 108.5 0 L 96.609375 -26.65625 L 39.65625 -26.65625 L 27.765625 0 L 10 0 L 59.171875 -111.03125 L 78.046875 -111.03125 L 127.0625 0 Z M 59.484375 -71.703125 L 46.953125 -43.140625 L 89.3125 -43.140625 L 76.453125 -72.328125 C 73.492188 -78.890625 70.691406 -85.867188 68.046875 -93.265625 C 66.671875 -89.359375 65.269531 -85.601562 63.84375 -82 C 62.414062 -78.40625 60.960938 -74.972656 59.484375 -71.703125 Z M 59.484375 -71.703125 "/>
      </g>
    </g>
  </g>
  <g fill="#5271ff" fill-opacity="1">
    <g transform="translate(793.896086, 460.765959)">
      <g>
        <path d="M 78.359375 -111.984375 C 85.546875 -111.984375 92.257812 -111.082031 98.5 -109.28125 C 104.738281 -107.488281 110.210938 -105.164062 114.921875 -102.3125 C 119.628906 -99.457031 123.359375 -96.390625 126.109375 -93.109375 L 115 -81.0625 C 109.925781 -85.289062 104.320312 -88.722656 98.1875 -91.359375 C 92.050781 -94.003906 85.441406 -95.328125 78.359375 -95.328125 C 69.691406 -95.328125 61.921875 -93.582031 55.046875 -90.09375 C 48.171875 -86.601562 42.722656 -81.867188 38.703125 -75.890625 C 34.679688 -69.921875 32.671875 -63.128906 32.671875 -55.515625 C 32.671875 -46.953125 34.785156 -39.65625 39.015625 -33.625 C 43.242188 -27.601562 48.820312 -23.003906 55.75 -19.828125 C 62.675781 -16.648438 70.109375 -15.0625 78.046875 -15.0625 C 85.128906 -15.0625 91.65625 -16.117188 97.625 -18.234375 C 103.601562 -20.359375 108.363281 -23.242188 111.90625 -26.890625 C 115.445312 -30.535156 117.21875 -34.6875 117.21875 -39.34375 L 78.046875 -39.34375 L 78.046875 -56 L 135.140625 -56 C 135.359375 -54.625 135.546875 -53.25 135.703125 -51.875 C 135.859375 -50.5 135.9375 -49.125 135.9375 -47.75 C 135.9375 -42.039062 135.035156 -36.539062 133.234375 -31.25 C 131.441406 -25.957031 128.960938 -21.410156 125.796875 -17.609375 C 120.929688 -11.578125 114.289062 -6.867188 105.875 -3.484375 C 97.46875 -0.0976562 87.820312 1.59375 76.9375 1.59375 C 68.476562 1.59375 60.492188 0.269531 52.984375 -2.375 C 45.472656 -5.019531 38.863281 -8.828125 33.15625 -13.796875 C 27.445312 -18.765625 22.953125 -24.765625 19.671875 -31.796875 C 16.390625 -38.835938 14.75 -46.742188 14.75 -55.515625 C 14.75 -63.554688 16.359375 -70.984375 19.578125 -77.796875 C 22.804688 -84.617188 27.300781 -90.59375 33.0625 -95.71875 C 38.832031 -100.851562 45.578125 -104.847656 53.296875 -107.703125 C 61.015625 -110.554688 69.367188 -111.984375 78.359375 -111.984375 Z M 78.359375 -111.984375 "/>
      </g>
    </g>
  </g>
  <g fill="#5271ff" fill-opacity="1">
    <g transform="translate(962.833884, 460.765959)">
      <g>
        <path d="M 137.6875 -55.515625 C 137.6875 -47.484375 136.175781 -40.003906 133.15625 -33.078125 C 130.144531 -26.148438 125.890625 -20.09375 120.390625 -14.90625 C 114.890625 -9.726562 108.382812 -5.679688 100.875 -2.765625 C 93.375 0.140625 85.179688 1.59375 76.296875 1.59375 C 67.203125 1.59375 58.898438 0.140625 51.390625 -2.765625 C 43.878906 -5.679688 37.398438 -9.726562 31.953125 -14.90625 C 26.515625 -20.09375 22.285156 -26.148438 19.265625 -33.078125 C 16.253906 -40.003906 14.75 -47.484375 14.75 -55.515625 C 14.75 -63.554688 16.253906 -71.039062 19.265625 -77.96875 C 22.285156 -84.894531 26.515625 -90.945312 31.953125 -96.125 C 37.398438 -101.3125 43.878906 -105.359375 51.390625 -108.265625 C 58.898438 -111.171875 67.203125 -112.625 76.296875 -112.625 C 85.179688 -112.625 93.375 -111.171875 100.875 -108.265625 C 108.382812 -105.359375 114.890625 -101.3125 120.390625 -96.125 C 125.890625 -90.945312 130.144531 -84.894531 133.15625 -77.96875 C 136.175781 -71.039062 137.6875 -63.554688 137.6875 -55.515625 Z M 120.234375 -55.515625 C 120.234375 -63.234375 118.351562 -70.132812 114.59375 -76.21875 C 110.84375 -82.300781 105.660156 -87.113281 99.046875 -90.65625 C 92.441406 -94.195312 84.859375 -95.96875 76.296875 -95.96875 C 67.515625 -95.96875 59.816406 -94.195312 53.203125 -90.65625 C 46.597656 -87.113281 41.445312 -82.300781 37.75 -76.21875 C 34.050781 -70.132812 32.203125 -63.234375 32.203125 -55.515625 C 32.203125 -47.796875 34.050781 -40.894531 37.75 -34.8125 C 41.445312 -28.738281 46.597656 -23.925781 53.203125 -20.375 C 59.816406 -16.832031 67.515625 -15.0625 76.296875 -15.0625 C 84.859375 -15.0625 92.441406 -16.832031 99.046875 -20.375 C 105.660156 -23.925781 110.84375 -28.765625 114.59375 -34.890625 C 118.351562 -41.023438 120.234375 -47.898438 120.234375 -55.515625 Z M 120.234375 -55.515625 "/>
      </g>
    </g>
  </g>
</svg>
